<?xml version="1.0" encoding="UTF-8" standalone="no"?>
<!-- Created with Inkscape (http://www.inkscape.org/) -->

<svg
   xmlns:dc="http://purl.org/dc/elements/1.1/"
   xmlns:cc="http://creativecommons.org/ns#"
   xmlns:rdf="http://www.w3.org/1999/02/22-rdf-syntax-ns#"
   xmlns:svg="http://www.w3.org/2000/svg"
   xmlns="http://www.w3.org/2000/svg"
   xmlns:xlink="http://www.w3.org/1999/xlink"
   xmlns:sodipodi="http://sodipodi.sourceforge.net/DTD/sodipodi-0.dtd"
   xmlns:inkscape="http://www.inkscape.org/namespaces/inkscape"
   width="1000"
   height="800"
   id="svg2"
   version="1.1"
   inkscape:version="0.48.2 r9819"
   sodipodi:docname="PanoramaBackground.png">
  <defs
     id="defs4">
    <linearGradient
       id="linearGradient3997">
      <stop
         style="stop-color:#724d4d;stop-opacity:1;"
         offset="0"
         id="stop3999" />
      <stop
         style="stop-color:#000102;stop-opacity:0;"
         offset="1"
         id="stop4001" />
    </linearGradient>
    <linearGradient
       id="linearGradient3757">
      <stop
         style="stop-color:#000d22;stop-opacity:1;"
         offset="0"
         id="stop3759" />
      <stop
         id="stop3767"
         offset="0.25"
         style="stop-color:#243452;stop-opacity:1;" />
      <stop
         id="stop3765"
         offset="0.5"
         style="stop-color:#2c3f65;stop-opacity:1;" />
      <stop
         style="stop-color:#212d44;stop-opacity:1;"
         offset="0.75"
         id="stop3769" />
      <stop
         style="stop-color:#000917;stop-opacity:1;"
         offset="1"
         id="stop3761" />
    </linearGradient>
    <linearGradient
       inkscape:collect="always"
       xlink:href="#linearGradient3757"
       id="linearGradient3763"
       x1="440"
       y1="0"
       x2="440"
       y2="800"
       gradientUnits="userSpaceOnUse" />
  </defs>
  <sodipodi:namedview
     id="base"
     pagecolor="#ffffff"
     bordercolor="#666666"
     borderopacity="1.0"
     inkscape:pageopacity="0.0"
     inkscape:pageshadow="2"
     inkscape:zoom="0.98994949"
     inkscape:cx="443.0325"
     inkscape:cy="334.1946"
     inkscape:document-units="px"
     inkscape:current-layer="g3919"
     showgrid="false"
     inkscape:showpageshadow="false"
     inkscape:window-width="1858"
     inkscape:window-height="1058"
     inkscape:window-x="-8"
     inkscape:window-y="-8"
     inkscape:window-maximized="1">
    <inkscape:grid
       type="xygrid"
       id="grid2985"
       empspacing="5"
       visible="true"
       enabled="true"
       snapvisiblegridlinesonly="true" />
  </sodipodi:namedview>
  <metadata
     id="metadata7">
    <rdf:RDF>
      <cc:Work
         rdf:about="">
        <dc:format>image/svg+xml</dc:format>
        <dc:type
           rdf:resource="http://purl.org/dc/dcmitype/StillImage" />
        <dc:title></dc:title>
      </cc:Work>
    </rdf:RDF>
  </metadata>
  <g
     inkscape:label="Layer 1"
     inkscape:groupmode="layer"
     id="layer1"
     transform="translate(0,-252.36218)">
    <rect
       style="fill:url(#linearGradient3763);fill-opacity:1.0;stroke:none"
       id="rect2987"
       width="1000"
       height="800"
       x="0"
       y="0"
       transform="translate(0,252.36218)" />
    <g
       id="g3940"
       transform="matrix(0.90690428,-0.42133672,0.42133672,0.90690428,-373.57575,142.05665)">
      <g
         id="g3919">
        <g
           id="g3899"
           transform="matrix(0.88612394,0.00966127,-0.00966127,0.88612394,-1.0590065,112.38258)"
           style="fill:#000000;fill-opacity:1">
          <g
             id="g3880"
             style="fill:#000000;fill-opacity:1">
            <g
               id="g3862"
               style="fill:#000000;fill-opacity:1">
              <g
                 id="g3845"
                 style="fill:#000000;fill-opacity:1">
                <g
                   id="g3829"
                   style="fill:#000000;fill-opacity:1">
                  <g
                     id="g3814"
                     style="fill:#000000;fill-opacity:1">
                    <g
                       id="g3800"
                       style="fill:#000000;fill-opacity:1">
                      <g
                         transform="matrix(7.7830664,3.4617786,-3.4617786,7.7830664,-93.480663,-322.79651)"
                         style="fill:#000000;fill-rule:nonzero;stroke:none;fill-opacity:1"
                         id="g1420">
                        <path
                           style="fill:#000000;fill-opacity:1"
                           id="path1422"
                           d="m 91.844727,111.4248 c 0,3.7754 -3.153321,6.83399 -7.045899,6.83399 -3.891113,0 -7.04541,-3.05859 -7.04541,-6.83399 0,-3.77343 3.154297,-6.833 7.04541,-6.833 3.892578,0 7.045899,3.05957 7.045899,6.833 z"
                           inkscape:connector-curvature="0" />
                        <path
                           style="fill:#000000;fill-opacity:1"
                           id="path1424"
                           d="m 100.91699,124.35449 c 0,3.77539 -3.154295,6.83399 -7.045896,6.83399 -3.891602,0 -7.045899,-3.0586 -7.045899,-6.83399 0,-3.77344 3.154297,-6.83301 7.045899,-6.83301 3.891601,0 7.045896,3.05957 7.045896,6.83301 z"
                           inkscape:connector-curvature="0" />
                        <path
                           style="fill:#000000;fill-opacity:1"
                           id="path1426"
                           d="m 82.875,124.40527 c 0,1.38184 -0.422852,2.66797 -1.150391,3.74317 -1.258789,1.86133 -3.429687,3.08984 -5.896484,3.08984 -3.891602,0 -7.044922,-3.05859 -7.044922,-6.83301 0,-3.77392 3.15332,-6.83398 7.044922,-6.83398 3.89209,0 7.046875,3.06006 7.046875,6.83398 l 0,0 z"
                           inkscape:connector-curvature="0" />
                        <g
                           style="fill:#000000;fill-opacity:1"
                           id="g1428">
                          <path
                             style="fill:#000000;fill-opacity:1"
                             id="path1430"
                             d="m 93.063477,137.66895 c -3.479493,0.002 -5.309571,-2.82813 -6.270508,-5.65723 -0.959961,-2.83008 -1.050781,-5.66113 -1.050781,-5.66113 l -1.775391,-0.0147 c 0,0 -0.333008,11.32422 -7.290039,11.33008 l 16.386719,0.003 z"
                             inkscape:connector-curvature="0" />
                        </g>
                        <g
                           style="fill:#000000;fill-opacity:1"
                           id="g1432">
                          <path
                             style="fill:#000000;fill-opacity:1"
                             id="path1434"
                             d="m 80.009766,116.43701 c 3.957031,3.95752 3.957031,9.89893 3.957031,9.89893 l 1.77539,0.0147 c 0,0 0,-6.06739 3.84668,-9.91358"
                             inkscape:connector-curvature="0" />
                        </g>
                        <g
                           style="fill:#000000;fill-opacity:1"
                           id="g1436">
                          <path
                             style="fill:#000000;fill-opacity:1"
                             id="path1438"
                             d="m 80.801758,129.15332 c 3.957031,-3.95703 9.899414,-3.95703 9.899414,-3.95703 l 0.01367,-1.77539 c 0,0 -6.067383,0 -9.913086,-3.84619"
                             inkscape:connector-curvature="0" />
                        </g>
                        <g
                           style="fill:#000000;fill-opacity:1"
                           id="g1440">
                          <path
                             style="fill:#000000;fill-opacity:1"
                             id="path1442"
                             d="m 88.738281,129.18262 c -3.957031,-3.95703 -9.899414,-3.95703 -9.899414,-3.95703 l -0.01416,-1.77539 c 0,0 6.067871,0 9.913574,-3.8462"
                             inkscape:connector-curvature="0" />
                        </g>
                      </g>
                    </g>
                  </g>
                </g>
              </g>
            </g>
          </g>
        </g>
        <g
           transform="matrix(2.8180231,1.3092192,-1.3092192,2.8180231,272.15566,812.10504)"
           id="g3788"
           style="fill:#000000;stroke:none;fill-opacity:1">
          <title
             id="title3790">Layer 1</title>
          <g
             id="g1616"
             style="fill:#000000;stroke:none;fill-opacity:1">
            <path
               inkscape:connector-curvature="0"
               id="path1608"
               d="m 53.596497,11.534256 c -12.82605,19.67366 -22.178284,29.820251 -41.46875,40.65625 18.255539,10.705963 31.126556,21.770905 41.84375,39.65625 9.572479,-16.99118 21.283463,-29.657776 41.625,-40.1875 -20.461426,-7.990479 -32.307617,-20.647537 -42,-40.125 z"
               style="fill:#000000;fill-rule:evenodd;stroke:none;fill-opacity:1" />
            <path
               inkscape:connector-curvature="0"
               id="path1614"
               d="M 53.51152,11.67746 C 40.68547,31.35112 31.333252,41.497696 12.04277,52.333725 c 18.255539,10.705963 31.126556,21.770905 41.84375,39.65625 9.572479,-16.99118 21.283478,-29.657776 41.625,-40.1875 -20.461426,-7.990479 -32.307617,-20.647552 -42,-40.125015 z"
               style="fill:#000000;fill-rule:evenodd;stroke:none;fill-opacity:1" />
          </g>
        </g>
        <g
           transform="matrix(0.50554429,0.23486974,-0.23486974,0.50554429,508.58027,829.12055)"
           id="g4359"
           style="fill:#000000;fill-opacity:1">
          <title
             id="title4361">Layer 1</title>
          <g
             id="layer1-1"
             style="fill:#000000;fill-opacity:1">
            <path
               style="fill:#000000;stroke-width:18.70000076000000200;stroke-miterlimit:4;fill-opacity:1"
               inkscape:connector-curvature="0"
               stroke-miterlimit="4"
               id="path7"
               d="m 263.41571,235.14587 c -66.24001,0 -119.99995,53.76001 -119.99995,120 0,134.75553 135.93315,170.08728 228.56245,303.30805 87.57422,-132.40338 228.5625,-172.85459 228.5625,-303.30805 0,-66.23999 -53.75989,-120 -120,-120 -48.04791,0 -89.40161,28.37043 -108.5625,69.1875 -19.1608,-40.81707 -60.5145,-69.1875 -108.5625,-69.1875 z" />
          </g>
        </g>
        <path
           inkscape:connector-curvature="0"
           style="fill:#000000;fill-opacity:1;stroke:none"
           d="m 701.48976,1331.2063 c 45.09504,9.9067 60.6151,-11.9907 84.15361,-54.5856 -12.56723,8.4626 -29.51307,11.1435 -50.55772,1.278 -34.59087,-16.2158 -48.43732,-47.1462 -19.97112,-86.8085 28.6998,-39.9877 98.94955,-28.0253 148.39092,-60.2764 7.2402,58.5846 61.68977,104.556 49.64012,152.2792 -11.95152,47.3349 -43.56158,57.1429 -79.22155,40.7249 -21.11217,-9.7203 -29.99253,-24.3996 -31.6305,-39.4618 -17.37085,45.4603 -24.09579,71.4439 12.55923,99.5173 -28.34074,-13.1668 -85.02223,-39.5003 -113.36299,-52.6671 z"
           id="path3295"
           sodipodi:nodetypes="ccsscssccc" />
      </g>
    </g>
  </g>
</svg>
