<?xml version="1.0" encoding="UTF-8" standalone="no"?>
<!-- Created with Inkscape (http://www.inkscape.org/) -->

<svg
   xmlns:dc="http://purl.org/dc/elements/1.1/"
   xmlns:cc="http://creativecommons.org/ns#"
   xmlns:rdf="http://www.w3.org/1999/02/22-rdf-syntax-ns#"
   xmlns:svg="http://www.w3.org/2000/svg"
   xmlns="http://www.w3.org/2000/svg"
   xmlns:sodipodi="http://sodipodi.sourceforge.net/DTD/sodipodi-0.dtd"
   xmlns:inkscape="http://www.inkscape.org/namespaces/inkscape"
   width="501"
   height="501"
   id="svg2"
   version="1.1"
   inkscape:version="0.48.2 r9819"
   sodipodi:docname="spade.svg">
  <defs
     id="defs4" />
  <sodipodi:namedview
     id="base"
     pagecolor="#ffffff"
     bordercolor="#666666"
     borderopacity="1.0"
     inkscape:pageopacity="0.0"
     inkscape:pageshadow="2"
     inkscape:zoom="0.7"
     inkscape:cx="284.71686"
     inkscape:cy="188.02732"
     inkscape:document-units="px"
     inkscape:current-layer="layer1"
     showgrid="false"
     inkscape:window-width="1858"
     inkscape:window-height="1058"
     inkscape:window-x="-8"
     inkscape:window-y="-8"
     inkscape:window-maximized="1"
     fit-margin-top="0"
     fit-margin-left="0"
     fit-margin-right="0"
     fit-margin-bottom="0" />
  <metadata
     id="metadata7">
    <rdf:RDF>
      <cc:Work
         rdf:about="">
        <dc:format>image/svg+xml</dc:format>
        <dc:type
           rdf:resource="http://purl.org/dc/dcmitype/StillImage" />
        <dc:title></dc:title>
      </cc:Work>
    </rdf:RDF>
  </metadata>
  <g
     inkscape:label="Layer 1"
     inkscape:groupmode="layer"
     id="layer1"
     transform="translate(-119.5,-229.00505)">
    <rect
       style="fill:#c83737;fill-rule:evenodd;stroke:#000000;stroke-width:1px;stroke-linecap:butt;stroke-linejoin:miter;stroke-opacity:1"
       id="rect2995"
       width="500"
       height="500"
       x="120"
       y="228.07648" />
    <g
       id="g1420"
       style="fill-rule:nonzero;stroke:none;fill:#ffffff"
       transform="matrix(11.35077,0,0,11.35077,-592.75451,-910.72281)">
      <path
         inkscape:connector-curvature="0"
         d="m 91.844727,111.4248 c 0,3.7754 -3.153321,6.83399 -7.045899,6.83399 -3.891113,0 -7.04541,-3.05859 -7.04541,-6.83399 0,-3.77343 3.154297,-6.833 7.04541,-6.833 3.892578,0 7.045899,3.05957 7.045899,6.833 z"
         id="path1422"
         style="fill:#ffffff" />
      <path
         inkscape:connector-curvature="0"
         d="m 100.91699,124.35449 c 0,3.77539 -3.154295,6.83399 -7.045896,6.83399 -3.891602,0 -7.045899,-3.0586 -7.045899,-6.83399 0,-3.77344 3.154297,-6.83301 7.045899,-6.83301 3.891601,0 7.045896,3.05957 7.045896,6.83301 z"
         id="path1424"
         style="fill:#ffffff" />
      <path
         inkscape:connector-curvature="0"
         d="m 82.875,124.40527 c 0,1.38184 -0.422852,2.66797 -1.150391,3.74317 -1.258789,1.86133 -3.429687,3.08984 -5.896484,3.08984 -3.891602,0 -7.044922,-3.05859 -7.044922,-6.83301 0,-3.77392 3.15332,-6.83398 7.044922,-6.83398 3.89209,0 7.046875,3.06006 7.046875,6.83398 l 0,0 z"
         id="path1426"
         style="fill:#ffffff" />
      <g
         id="g1428"
         style="fill:#ffffff">
        <path
           inkscape:connector-curvature="0"
           d="m 93.063477,137.66895 c -3.479493,0.002 -5.309571,-2.82813 -6.270508,-5.65723 -0.959961,-2.83008 -1.050781,-5.66113 -1.050781,-5.66113 l -1.775391,-0.0147 c 0,0 -0.333008,11.32422 -7.290039,11.33008 l 16.386719,0.003 z"
           id="path1430"
           style="fill:#ffffff" />
      </g>
      <g
         id="g1432"
         style="fill:#ffffff">
        <path
           inkscape:connector-curvature="0"
           d="m 80.009766,116.43701 c 3.957031,3.95752 3.957031,9.89893 3.957031,9.89893 l 1.77539,0.0147 c 0,0 0,-6.06739 3.84668,-9.91358"
           id="path1434"
           style="fill:#ffffff" />
      </g>
      <g
         id="g1436"
         style="fill:#ffffff">
        <path
           inkscape:connector-curvature="0"
           d="m 80.801758,129.15332 c 3.957031,-3.95703 9.899414,-3.95703 9.899414,-3.95703 l 0.01367,-1.77539 c 0,0 -6.067383,0 -9.913086,-3.84619"
           id="path1438"
           style="fill:#ffffff" />
      </g>
      <g
         id="g1440"
         style="fill:#ffffff">
        <path
           inkscape:connector-curvature="0"
           d="m 88.738281,129.18262 c -3.957031,-3.95703 -9.899414,-3.95703 -9.899414,-3.95703 l -0.01416,-1.77539 c 0,0 6.067871,0 9.913574,-3.8462"
           id="path1442"
           style="fill:#ffffff" />
      </g>
    </g>
  </g>
</svg>
